HIERARCHY
ROOT Hips
{
	OFFSET 0.000000 0.000000 0.000000
	CHANNELS 6 Xposition Yposition Zposition Zrotation Yrotation Xrotation 
	JOINT LHipJoint
	{
		OFFSET 0.000000 0.000000 0.000000
		CHANNELS 3 Zrotation Yrotation Xrotation
		JOINT LeftUpLeg
		{
			OFFSET 1.363060 -1.794630 0.839290
			CHANNELS 3 Zrotation Yrotation Xrotation
			JOINT LeftLeg
			{
				OFFSET 2.448110 -6.726130 0.000000
				CHANNELS 3 Zrotation Yrotation Xrotation
				JOINT LeftFoot
				{
					OFFSET 2.562200 -7.039590 0.000000
					CHANNELS 3 Zrotation Yrotation Xrotation
					JOINT LeftToeBase
					{
						OFFSET 0.157640 -0.433110 2.322550
						CHANNELS 3 Zrotation Yrotation Xrotation
						End Site
						{
							OFFSET 0.000000 0.000000 0.000000
						}
					}
				}
			}
		}
	}
	JOINT RHipJoint
	{
		OFFSET 0.000000 0.000000 0.000000
		CHANNELS 3 Zrotation Yrotation Xrotation
		JOINT RightUpLeg
		{
			OFFSET -1.305520 -1.794630 0.839290
			CHANNELS 3 Zrotation Yrotation Xrotation
			JOINT RightLeg
			{
				OFFSET -2.542530 -6.985550 0.000000
				CHANNELS 3 Zrotation Yrotation Xrotation
				JOINT RightFoot
				{
					OFFSET -2.568260 -7.056230 0.000000
					CHANNELS 3 Zrotation Yrotation Xrotation
					JOINT RightToeBase
					{
						OFFSET -0.164730 -0.452590 2.363150
						CHANNELS 3 Zrotation Yrotation Xrotation
						End Site
						{
							OFFSET 0.000000 0.000000 0.000000
						}
					}
				}
			}
		}
	}
}
MOTION
Frames: 19
Frame Time: 0.008333
-4.672418 16.127244 0.238724 -11.015599 77.787914 16.943417 -8.660748 -1.368545 1.129640 -9.511900 -2.857468 -64.272839 -1.557626 2.060915 34.452543 1.628172 7.771469 0.920514 1.852700 -0.000001 -26.150800 11.313253 -2.135774 -3.354276 2.243807 -6.740231 -12.850113 0.543240 -2.921036 40.744771 0.461371 18.172256 20.569577 8.282700 0.000000 -91.139100
-4.529902 16.115709 0.234421 -9.507623 77.952439 18.581984 -8.592508 -1.434825 0.936030 -9.946925 -3.211512 -64.462206 -1.498417 2.172620 36.219506 1.706750 8.005547 -0.319494 1.700100 -0.000000 -25.368900 11.462749 -2.011759 -3.522694 1.654209 -7.319244 -13.971931 0.414743 -3.071213 42.799089 0.309865 18.304658 22.311736 8.924800 0.000001 -88.573500
-4.391123 16.114188 0.227532 -8.153241 78.142393 20.045568 -8.519529 -1.498907 0.748165 -10.331019 -3.586773 -64.400604 -1.459251 2.235270 37.616095 1.790346 8.238006 -1.714867 1.512000 0.000001 -24.947100 11.596467 -1.878030 -3.696792 1.160245 -7.828866 -15.045407 0.298969 -3.217200 44.770467 0.150201 18.141844 24.024608 9.408000 -0.000001 -85.243900
-4.255159 16.121899 0.217765 -7.015168 78.338984 21.273417 -8.448449 -1.556401 0.572864 -10.652316 -3.958535 -64.114177 -1.438535 2.254829 38.643458 1.875786 8.460515 -3.159061 1.301000 0.000000 -24.822699 11.711090 -1.738617 -3.872342 0.770836 -8.273600 -16.073120 0.194944 -3.356978 46.649582 -0.012807 17.641481 25.610747 9.655300 0.000000 -81.339900
-4.121134 16.137934 0.205002 -6.140873 78.527540 22.221962 -8.385584 -1.604283 0.415802 -10.905841 -4.304826 -63.638707 -1.433160 2.238466 39.317392 1.958937 8.665657 -4.548141 1.083099 0.000000 -24.910900 11.803982 -1.597975 -4.044590 0.490462 -8.658787 -17.062597 0.099951 -3.489106 48.429195 -0.175732 16.770210 26.978955 9.603800 0.000000 -77.157400
-3.988222 16.161297 0.189356 -5.560309 78.699418 22.868114 -8.336044 -1.641111 0.280927 -11.092973 -4.607944 -63.016170 -1.439127 2.193819 39.666923 2.035081 8.846704 -5.792950 0.875400 -0.000000 -25.115100 11.873752 -1.460516 -4.208575 0.319500 -8.989663 -18.025535 0.010627 -3.612777 50.103924 -0.336723 15.513129 28.051718 9.216800 0.000000 -73.035999
-3.855826 16.190963 0.171097 -5.280190 78.852749 23.212450 -8.303205 -1.666747 0.170177 -11.220781 -4.854881 -62.290371 -1.452460 2.128420 39.731390 2.099350 8.996494 -6.827350 0.693300 -0.000000 -25.339200 11.920419 -1.330284 -4.359549 0.255281 -9.270522 -18.975020 -0.076047 -3.727889 51.670802 -0.494993 13.881510 28.767104 8.492500 -0.000001 -69.277100
-3.723490 16.226037 0.150762 -5.275772 78.990313 23.287225 -8.288336 -1.680802 0.084002 -11.304141 -5.039139 -61.501452 -1.470417 2.049019 39.554195 2.147629 9.107788 -7.614171 0.548000 0.000000 -25.503500 11.945774 -1.210087 -4.493702 0.287928 -9.508337 -19.923229 -0.161900 -3.835050 53.129422 -0.650014 11.919777 29.079290 7.467000 0.000000 -66.071999
-3.591010 16.265612 0.128818 -5.514735 79.120576 23.131334 -8.291012 -1.684383 0.020905 -11.357492 -5.158399 -60.685985 -1.491166 1.961315 39.183318 2.176927 9.172294 -8.146777 0.444600 0.000000 -25.554500 11.952199 -1.102402 -4.609086 0.408030 -9.710551 -20.880700 -0.247105 -3.935657 54.480072 -0.800899 9.701265 28.960241 6.209600 0.000001 -63.484700
-3.458416 16.308933 0.105854 -5.937964 79.253292 22.807166 -8.309241 -1.677403 -0.021496 -11.399421 -5.216199 -59.868906 -1.514767 1.869613 38.662370 2.186005 9.182892 -8.446205 0.382100 0.000000 -25.469200 11.942874 -1.007846 -4.705462 0.599579 -9.888090 -21.853035 -0.330374 -4.031211 55.722389 -0.946108 7.326491 28.404823 4.816100 0.000000 -61.464100
-3.325907 16.355335 0.082400 -6.483113 79.395577 22.379723 -8.339919 -1.659070 -0.047862 -11.446933 -5.218739 -59.067198 -1.542879 1.777598 38.029380 2.175251 9.133587 -8.554974 0.353500 -0.000001 -25.252300 11.920534 -0.923578 -4.786089 0.844858 -10.051808 -22.840525 -0.409455 -4.122466 56.854204 -1.083535 4.911044 27.437200 3.394800 -0.000000 -59.891100
-3.193772 16.404208 0.058959 -7.083148 79.559474 21.911682 -8.379451 -1.629747 -0.061646 -11.515207 -5.176876 -58.283293 -1.577434 1.686345 37.314406 2.146338 9.021145 -8.528207 0.348401 -0.000000 -24.931000 11.888528 -0.848987 -4.852984 1.124261 -10.214038 -23.836642 -0.480576 -4.210383 57.869779 -1.210827 2.572489 26.113391 2.049700 -0.000000 -58.615300
-3.062348 16.455102 0.035855 -7.682223 79.751411 21.453248 -8.424223 -1.589384 -0.066989 -11.613958 -5.102287 -57.511743 -1.620595 1.596205 36.538775 2.101959 8.845673 -8.424855 0.355200 0.000000 -24.546199 11.849338 -0.781370 -4.909747 1.419672 -10.384091 -24.829592 -0.540171 -4.294524 58.761474 -1.325510 0.416224 24.520834 0.864699 0.000000 -57.500700
-2.932018 16.507546 0.013264 -8.234328 79.976638 21.041589 -8.471005 -1.538616 -0.067593 -11.747664 -5.007375 -56.737446 -1.673820 1.506144 35.714164 2.045422 8.611975 -8.297661 0.363400 0.000000 -24.146900 11.805300 -0.718282 -4.959900 1.713222 -10.570316 -25.803146 -0.585082 -4.374039 59.521196 -1.425156 -1.475359 22.770585 -0.106800 0.000000 -56.441400
-2.803036 16.561116 -0.008730 -8.707582 80.237024 20.698103 -8.517163 -1.478927 -0.066886 -11.915038 -4.903521 -55.940844 -1.737376 1.414459 34.845871 1.980274 8.329284 -8.187007 0.365400 -0.000000 -23.782400 11.758451 -0.657642 -5.006902 1.989848 -10.778505 -26.738716 -0.613404 -4.447838 60.142578 -1.507428 -3.048749 20.985085 -0.845900 0.000000 -55.379600
-2.675576 16.615377 -0.030219 -9.090122 80.528728 20.424118 -8.561309 -1.411628 -0.067348 -12.109062 -4.799157 -55.100770 -1.810295 1.319441 33.933392 1.910041 8.010508 -8.117177 0.357400 0.000000 -23.497100 11.710041 -0.597196 -5.053645 2.238218 -11.010956 -27.617519 -0.625106 -4.514151 60.621734 -1.570237 -4.279528 19.285116 -1.363400 -0.000000 -54.311199
-2.549775 16.669870 -0.051339 -9.385481 80.845820 20.205998 -8.602884 -1.339264 -0.070919 -12.318404 -4.699754 -54.198853 -1.890089 1.219470 32.974655 1.837939 7.671544 -8.094510 0.339500 -0.000000 -23.324800 11.661198 -0.536114 -5.102189 2.451393 -11.267089 -28.422870 -0.621489 -4.571838 60.958651 -1.611908 -5.167758 17.773909 -1.689600 0.000000 -53.259700
-2.425554 16.724145 -0.072344 -9.619568 81.176359 20.010244 -8.642726 -1.263444 -0.078155 -12.528810 -4.606724 -53.223308 -1.973257 1.114092 31.968311 1.766914 7.330117 -8.110559 0.314500 0.000000 -23.284800 11.612070 -0.473337 -5.153171 2.627393 -11.541281 -29.141910 -0.605384 -4.619052 61.156923 -1.631692 -5.732931 16.528978 -1.863799 0.000000 -52.288200
-2.302766 16.777700 -0.093469 -9.833751 81.507814 19.790812 -8.682294 -1.186405 -0.089162 -12.725589 -4.518133 -52.170391 -2.055594 1.003661 30.916611 1.699235 7.003276 -8.146272 0.286800 -0.000000 -23.379100 11.562726 -0.409213 -5.205736 2.768014 -11.824245 -29.767292 -0.579902 -4.654756 61.224384 -1.629774 -6.005800 15.591794 -1.923500 0.000000 -51.449400
